<?xml version="1.0" encoding="UTF-8"?><svg id="Artwork" xmlns="http://www.w3.org/2000/svg" viewBox="0 0 233.5036 299.2473"><defs><style>.cls-1{fill:#e32851;}.cls-1,.cls-2,.cls-3{stroke-width:0px;}.cls-2{fill:#ff932c;}.cls-3{fill:#0088d9;}</style></defs><path class="cls-3" d="m3.2586,183.3815c-1.8164,0-3.2511,1.5166-3.186,3.3318,2.2422,62.5308,53.6438,112.534,116.7208,112.534s114.4609-49.9995,116.708-112.5251c.0655-1.8212-1.3744-3.3428-3.1968-3.3428h-61.4946c-1.6359,0-3.0456,1.3377-3.1738,2.9686-1.9853,25.2469-23.0869,45.1171-48.8428,45.1171-30.9024,0-43.3981-26.2411-43.4004-26.2454-3.9867-7.5129-5.149-14.8374-5.4791-18.9333-.1327-1.6465-1.5241-2.907-3.1759-2.9069l-61.4794.002Z"/><path class="cls-2" d="m194.9433,18.1224l-127.1606,70.3098v74.6428s129.1503-71.4139,129.1503-71.4139c1.6934-.9363,2.7441-2.7185,2.7441-4.6531V20.9143c0-2.4296-2.6076-3.9675-4.7339-2.7919Z"/><path class="cls-1" d="m67.7827,3.1956c0-2.529-2.8019-4.0526-4.9246-2.6779L2.4268,39.6535c-1.5132.98-2.4268,2.66-2.4268,4.4629v115.7729c0,1.7594,1.4263,3.1857,3.1857,3.1857h64.597V3.1956Z"/></svg>